/* XPM */
static char *_cd35ba1ad024338ccd1c4352f97e063gbbYppZB8nUMtGGj[] = {
/* columns rows colors chars-per-pixel */
"64 64 136 2 ",
"   c None",
".  c #241312",
"X  c #2A1615",
"o  c #2D1916",
"O  c #2F1918",
"+  c #331C1A",
"@  c #3B1E1D",
"#  c #3C221E",
"$  c #411F20",
"%  c #442421",
"&  c #4B2625",
"*  c #452822",
"=  c #462822",
"-  c #472823",
";  c #482923",
":  c #482824",
">  c #482924",
",  c #492925",
"<  c #4A2824",
"1  c #4A2825",
"2  c #4B2825",
"3  c #492A24",
"4  c #4A2A25",
"5  c #4B2A25",
"6  c #4B2B25",
"7  c #4C2B25",
"8  c #4D2826",
"9  c #4E2826",
"0  c #4C2A26",
"q  c #4C2B26",
"w  c #4F2A26",
"e  c #4E2B26",
"r  c #4F2A27",
"t  c #4F2B27",
"y  c #4D2C26",
"u  c #4E2C26",
"i  c #4F2C27",
"p  c #4F2D27",
"a  c #502727",
"s  c #512927",
"d  c #502728",
"f  c #502828",
"g  c #512828",
"h  c #512928",
"j  c #522828",
"k  c #522928",
"l  c #522829",
"z  c #522929",
"x  c #532A28",
"c  c #532A29",
"v  c #542A29",
"b  c #542B29",
"n  c #552B29",
"m  c #542A2A",
"M  c #542B2A",
"N  c #552B2A",
"B  c #562B2A",
"V  c #532D28",
"C  c #532C29",
"Z  c #532D29",
"A  c #502E28",
"S  c #512E28",
"D  c #522E28",
"F  c #522F28",
"G  c #542C29",
"H  c #552E29",
"J  c #552F29",
"K  c #552C2A",
"L  c #562C2A",
"P  c #562D2A",
"I  c #572D2A",
"U  c #572D2B",
"Y  c #572E2B",
"T  c #582D2B",
"R  c #582E2B",
"E  c #592E2B",
"W  c #592E2C",
"Q  c #592F2C",
"!  c #5A2F2C",
"~  c #543029",
"^  c #55312A",
"/  c #56302A",
"(  c #58302B",
")  c #58312B",
"_  c #58322B",
"`  c #59332B",
"'  c #5B302C",
"]  c #5B302D",
"[  c #5B312D",
"{  c #5A322C",
"}  c #5B322C",
"|  c #5C312C",
" . c #5C302D",
".. c #5C312D",
"X. c #5D312D",
"o. c #5C322D",
"O. c #5D322D",
"+. c #5C332D",
"@. c #5E322D",
"#. c #5E322E",
"$. c #5E332E",
"%. c #5F332E",
"&. c #5C342C",
"*. c #5D352D",
"=. c #5E342D",
"-. c #5F342E",
";. c #5F352E",
":. c #60342E",
">. c #60342F",
",. c #61342F",
"<. c #60352F",
"1. c #61352F",
"2. c #62352F",
"3. c #60362E",
"4. c #61362F",
"5. c #62362F",
"6. c #63362F",
"7. c #63372F",
"8. c #623530",
"9. c #623630",
"0. c #633630",
"q. c #633730",
"w. c #643730",
"e. c #643731",
"r. c #633830",
"t. c #643830",
"y. c #653830",
"u. c #643831",
"i. c #653831",
"p. c #653931",
"a. c #663831",
"s. c #663931",
"d. c #673931",
"f. c #673A31",
"g. c #663932",
"h. c #673A32",
/* pixels */
"                                                                                                                                ",
"                                                                                                                                ",
"                                                                                                                                ",
"                                                                                                                                ",
"                                                                                                                                ",
"                                                                                                                                ",
"                                                                                                                                ",
"                                                                                                                                ",
"                                                                                                                                ",
"                                                                                                                                ",
"                                                                                                                                ",
"                                                                                                                                ",
"                                                                                                                                ",
"                                                                                                                                ",
"                                                                                                                                ",
"                                                                                                                                ",
"                  d d a d d a d d d d d d d d d a d d d d d a d d d d d d d d 9 d d d d 9 l 9 l d a d d a d d                   ",
"                l l l l s l s l d n d n l l l l l l l l l l l s l l l l l l d l d n d d d l l l l l s l s l d l                 ",
"                L n n n n L n L n n n n n n n n L n n n n L L L n n n n n n L n n n n n n n L l n T n n L L n n                 ",
"              L ! L T L T T T T ! T T T T T T ! T T ! U T T T T T T T T ! ! ! L ! ! T ! ! ! ! U T T T T T T T T L               ",
"          l n T ! %.%.%.%.%.%.%.%.%.;.;.:.%.%.%.%.%.%.%.%.%.%.%.2.;.%.%.;.;.%.%.%.%.%.%.;.%.o.o.2.%.;.;.o.%.%.T ! n l           ",
"        d l L T o.;.2.2.<.0.;.2.;.;.2.2.0.0.0.0.;.0.<.<.<.;.0.0.2.0.0.0.4.2.2.0.0.2.2.2.0.2.0.0.2.2.2.2.0.2.%.o.T n l d         ",
"        d l n T %.2.0.r.r.0.0.2.0.2.2.2.r.0.0.r.0.0.0.;.<.0.0.0.2.f.r.g.g.f.0.g.r.0.0.0.2.g.r.0.2.2.0.0.r.2.2.%.T n l d         ",
"        d s L T %.0.g.r.0.<.%.;.%.%.2.2.0.g.g.r.0.%.%.%.%.%.#.0.f.g.g.g.g.g.g.0.0.#.%.0.g.0.g.0.2.2.2.0.0.g.r.;.T n l d         ",
"        d d n T :.0.0.0.;.o.T L L o.o.o.2.0.0.0.%.o.U ! ! o.! %.;.2.f.f.g.g.g.2.%.o.o.%.0.0.g.0.%.o.! %.0.0.2.%.T L l a         ",
"        d d n ! %.2.0.;.%.L L n l L L o.0.0.0.;.o.U L l l B U ! 2.4.f.f.g.2.2.;.o.L L ! %.0.0.#.! ! U o.;.0.2.%.T L l d         ",
"        d n n ' %.2.0.%.' L l l l n ! ! %.0.0.%.! n l r d l l ! ;.0.g.g.g.0.2.! L L l o.%.2.2.%.U n L ! %.0.2.;.T n x a         ",
"        a s n T %.0.;.%./ L l l n U ! %.0.r.2.%.! n d 9 9 r L ! %.2.4.g.0.%.! ! L l L T %.0.;.;.U B l U %.;.;.o.T L l a         ",
"        d l L T o.<.2.%.L C l L ! ! %.0.0.0.2.;.U n r 9 9 9 l ! %.0.0.0.%.! n n C s L L ;.;.;.%.! B m U %.;.2.%.T n l d         ",
"        d l L T %.0.2.%.o.L n B ! 0.0.g.g.g.2.%.! n l l d d B ! %.0.0.:.! ! L l l l C o.%.2.0.%.U B B ! ;.2.2.%.T n l d         ",
"        d l n T o.;.0.;.! L U ! %.0.g.g.g.f.4.%.! U m l B B U ! %.0.0.:.o.U L n l L L o.#.0.0.%.! U U ! 2.2.2.%.T T l d         ",
"        d l n T %.0.2.2.%.o.o.%.0.0.g.g.g.f.f.;.#.o.! ! ! ! ! #.0.0.0.;.%.! o.U U ! o.%.0.g.0.<.%.o.%.#.2.2.2.;.T L l d         ",
"        a l T T %.0.g.0.0.0.#.0.f.4.f.f.f.f.g.2.2.2.;.;.%.:.:.2.0.r.2.4.2.;.;.%.%.%.<.0.0.g.g.0.2.;.2.2.0.g.0.o.U L l d         ",
"        a l L T o.0.g.0.0.0.0.0.2.f.f.g.f.g.g.g.0.2.2.2.0.0.0.7.g.g.g.f.r.2.2.2.;.2.0.0.0.g.g.r.0.2.0.0.g.r.0.%.! n l d         ",
"        d l n T %.0.r.g.0.0.0.0.2.0.4.f.2.g.g.r.r.2.2.2.0.g.7.d.g.f.2.4.2.2.2.2.;.0.0.0.g.g.g.r.0.2.2.r.r.r.0.o.L n l d         ",
"        d l n T %.<.0.0.0.;.%.%.%.;.;.2.4.2.r.r.2.;.%.2.g.0.f.f.g.f.f.2.;.;.%.;.%.%.%.;.0.r.0.0.2.;.;.2.0.0.0.%.! n l 9         ",
"        d l n T %.0.0.<.%.! ! ! L ! o.%.2.2.2.2.%.! o.%.2.4.g.f.g.g.0.<.%.o.! L U ! ! %.;.r.0.2.%.o.! 8.8.2.0.%.! n l d         ",
"        9 l n ! o.0.0.<.o.U n l l L L o.%.0.2.2.! ! ! ! 2.4.f.f.g.g.r.%.o.L n n B B U %.;.2.2.2.%.L ! ! :.2.;.%.T n l d         ",
"        l l l ! %.0.0.0.! U L l n n T %.8.0.0.8. .! U ! ;.2.f.f.f.f.0.0.! U U n n B L o.2.0.2.;.! ! ! ! :.0.0.%.T L l d         ",
"        9 l L L %.;.0.0.%.o.o.L U U ! %.0.0.0.0.#.! ! %.2.2.f.f.f.f.0.0.#.o.! U L ! o.%.2.0.0.0.%.! ! %.0.0.0.%.T n l d         ",
"        d l n T %.2.f.2.2.;.%.%.%.%.%.;.0.g.0.g.0.;.#.0.0.r.g.f.f.d.0.g.2.;.%.%.%.%.;.;.r.g.r.0.2.;.;.0.7.g.2.%.T L l a         ",
"        d l L T %.2.2.g.0.0.0.<.0.0.2.0.g.0.g.2.0.0.0.0.0.g.g.g.f.7.0.7.0.0.2.2.;.0.2.0.0.r.r.0.2.0.0.4.g.2.2.%.T L l d         ",
"        a l L T %.%.2.0.0.2.2.;.;.<.0.0.2.;.2.2.;.;.<.<.0.0.r.r.4.2.g.2.2.;.;.;.;.2.2.2.0.0.0.0.2.2.2.2.2.2.:.| T L s d         ",
"          s L T T %.%.%.%.%.%.%.%.%.%.o.%.%.%.o.o.o.o.*.;.;.;.;.4.2.;.;.o.' o.%.%.%.%.;.%.%.%.;.;.;.%.%.%.%.%.| T L d           ",
"              L ! T T T ! T T T ! T T T L T L L n l L L / *.*.*.*.*.` ' F C l n L L ! T T T T T L T T T T T T T L               ",
"                n n n n n n n n n n n n L C C l d 9 9 r C / _ ` ` ` / n u 9 9 9 s l n n n L n n L n L L n n L L                 ",
"                n d l l j j d n n a n l d d s 9 & $ : 2 u C ~ ~ / F F u 3 & % & 2 9 a l l l s l n d s s l l l l                 ",
"                  d a d d a d d d d d d l 9 & & & % % : q u C ~ F p u 3 % % % $ & & 9 d l s d d d d d d d d d                   ",
"                                              & % & % & > q y y u 9 3 3 $ $ $ $ %                                               ",
"                                                % $ % % > > 2 q u 3 3 * $ $ $ @                                                 ",
"                                                % $ % % * * 3 * 3 * % % $ @ @ @                                                 ",
"                                                $ % $ % * * * * * * % % @ @ @ @                                                 ",
"                                                $ $ $ $ % % # * * * # # @ + + +                                                 ",
"                                                @ $ @ $ # # # # # % # # @ + + +                                                 ",
"                                                + @ @ + # # # # # # # # + + O O                                                 ",
"                                                + + + @ @ @ # # # # # + + O O O                                                 ",
"                                                o O O + + o o # o o # o o o o o                                                 ",
"                                                X o O o o # o o o o o o o o X X                                                 ",
"                                                . X o o o o o o o o o o X O X .                                                 ",
"                                                  . . . X X X o o o X X X . .                                                   ",
"                                                      . .             . .                                                       ",
"                                                                                                                                ",
"                                                                                                                                ",
"                                                                                                                                "
};
