/* XPM */
static char *_48383c6aa994b3fc1bc6d449559c490axSNeOBtr8s8rGCq[] = {
/* columns rows colors chars-per-pixel */
"64 64 29 1 ",
"  c #62B04D",
". c #63B04D",
"X c #62B14D",
"o c #63B14D",
"O c #64B14C",
"+ c #65B14C",
"@ c #65B24C",
"# c #67B34C",
"$ c #68B34B",
"% c #6BB54B",
"& c #6DB64A",
"* c #61B04D",
"= c #69B44B",
"- c #6EB74A",
"; c #71B84A",
": c #66B24C",
"> c #6AB44B",
", c #70B84A",
"< c #73BA49",
"1 c #74BA49",
"2 c #64B14D",
"3 c #6AB54B",
"4 c #67B24C",
"5 c #73B949",
"6 c #66B34C",
"7 c #6EB64A",
"8 c #75BA49",
"9 c #6FB74A",
"0 c white",
/* pixels */
"                                                                ",
"                                                                ",
"                                                                ",
"                                                                ",
"                                                                ",
"                                                                ",
"                                                                ",
"                                                                ",
"                                                                ",
"                                                                ",
"                                                                ",
"                                                                ",
"                                                                ",
"                                                                ",
"                                                                ",
"                                                                ",
"                                                                ",
"            ....            ....                                ",
"          XoO++OoX        XoO++OoX                              ",
"          o@#$$#@o        o@#$$#@o                              ",
"         .O#%&&%#O ****** O#%&&%#O.                             ",
"         .@=-;;-=@ *    * @=-;;-=@.                             ",
"        *o:>,<<,>:o.O++O.o:>,<<,>:o*                            ",
"        *X:%;11;%:2+#$$#+2:%;11;%:X*                            ",
"        *X:%;11,3:@4%&&%4@:3,11;%:X*                            ",
"        *o:%,<5,>6:=7;;7=:6>,5<,%:o*                            ",
"        *o:%,<5,>66>,<<,>66>,5<,%:o*                            ",
"        *X:%;11,>##3;88;3##>,11;%:X*                            ",
"        *X:%;11,>##3;88;3##>,11;%:X*                            ",
"        *o:>,559>66>,<<,>66>955,>:o*                            ",
"         .@=-;;7=::=7;;7=::=7;;-=@.                             ",
"         .O#%&&%#@@#%&&%#@@#%&&%#O.                             ",
"          o@#$$#@22@#$$#@22@#$$#@o                              ",
"          XoO++OooooO++OooooO++OoX                              ",
"            ....    ....    ....                                ",
"                                                                ",
"                                                                ",
"                                    ....            ....        ",
"                                  XoO++OoX        XoO++OoX      ",
"                                  o@#$$#@o        o@#$$#@o      ",
"                                 .O#%&&%#O ****** O#%&&%#O.     ",
"                                 .@=-;;-=@ *    * @=-;;-=@.     ",
"                                *o:>,<<,>:o.O++O.o:>,<<,>:o*    ",
"                                *X:%;11;%:2+#$$#+2:%;11;%:X*    ",
"                                *X:%;11,3:@4%&&%4@:3,11;%:X*    ",
"                                *o:%,<5,>6:=7;;7=:6>,5<,%:o*    ",
"                                *o:%,<5,>66>,<<,>66>,5<,%:o*    ",
"                                *X:%;11,>##3;88;3##>,11;%:X*    ",
"                                *X:%;11,>##3;88;3##>,11;%:X*    ",
"                                *o:>,559>66>,<<,>66>955,>:o*    ",
"                                 .@=-;;7=::=7;;7=::=7;;-=@.     ",
"                                 .O#%&&%#@@#%&&%#@@#%&&%#O.     ",
"                                  o@#$$#@22@#$$#@22@#$$#@o      ",
"                                  XoO++OooooO++OooooO++OoX      ",
"                                    ....    ....    ....        ",
"                                                                ",
"                                                                ",
"                                                                ",
"                                                                ",
"                                                                ",
"                                                                ",
"                                                                ",
"                                                                ",
"                                                                "
};
