/* XPM */
static char *_431a400b0204d21fc41aea4a514d20fSgX4EyzrgcJqlSnB[] = {
/* columns rows colors chars-per-pixel */
"64 64 210 2 ",
"   c None",
".  c #050415",
"X  c #080516",
"o  c #060619",
"O  c #090619",
"+  c #0A091A",
"@  c #080A17",
"#  c #110D1D",
"$  c #0F0D20",
"%  c #151121",
"&  c #1B1624",
"*  c #251B24",
"=  c #2A1E26",
"-  c #281E2B",
";  c #2F2124",
":  c #2E252E",
">  c #312325",
",  c #33252A",
"<  c #36292D",
"1  c #3A292C",
"2  c #2C2532",
"3  c #352C35",
"4  c #3A2D32",
"5  c #362E39",
"6  c #392F39",
"7  c #322632",
"8  c #3B3236",
"9  c #36303A",
"0  c #3D343C",
"q  c #3E383B",
"w  c #452F2E",
"e  c #422D30",
"r  c #43353A",
"t  c #42383E",
"y  c #493636",
"u  c #543C3B",
"i  c #5A3E36",
"p  c #4B332D",
"a  c #5F443F",
"s  c #61443B",
"d  c #68483C",
"f  c #7C523B",
"g  c #7F5037",
"h  c #3E3640",
"j  c #3F3941",
"k  c #403742",
"l  c #433B43",
"z  c #4F3E43",
"x  c #584648",
"c  c #5E5057",
"v  c #664840",
"b  c #6D4C42",
"n  c #614A4E",
"m  c #734E40",
"M  c #66524E",
"N  c #7D5443",
"B  c #6A4F58",
"V  c #6A4E56",
"C  c #645452",
"Z  c #675954",
"A  c #685956",
"S  c #655B60",
"D  c #766566",
"F  c #7F6D6F",
"G  c #86593D",
"H  c #875A3D",
"J  c #865C42",
"K  c #8A5D41",
"L  c #845D4B",
"P  c #935F42",
"I  c #8E634C",
"U  c #8F6143",
"Y  c #946546",
"T  c #92654D",
"R  c #936A4B",
"E  c #9D6A48",
"W  c #9F6945",
"Q  c #856453",
"!  c #886959",
"~  c #926B53",
"^  c #9D6B50",
"/  c #8A705F",
"(  c #9D745B",
")  c #9A7156",
"_  c #A26E4A",
"`  c #A6724D",
"'  c #AB744C",
"]  c #AD7146",
"[  c #B1774C",
"{  c #B2794E",
"}  c #AA7959",
"|  c #B47C54",
" . c #B17F5C",
".. c #917261",
"X. c #8C7D7B",
"o. c #877773",
"O. c #907F79",
"+. c #957A72",
"@. c #8C6A60",
"#. c #A67E63",
"$. c #BD855C",
"%. c #BA855B",
"&. c #9B847E",
"*. c #978078",
"=. c #A78468",
"-. c #A9886F",
";. c #AA8266",
":. c #BD8A64",
">. c #B68C6B",
",. c #AD8C73",
"<. c #A68A79",
"1. c #B38D71",
"2. c #B48B7A",
"3. c #AE927C",
"4. c #B7957A",
"5. c #C28D64",
"6. c #C28E69",
"7. c #C59067",
"8. c #C89167",
"9. c #C5926A",
"0. c #C89269",
"q. c #CD9A6D",
"w. c #C99571",
"e. c #CD9C76",
"r. c #CB9F7D",
"t. c #C49774",
"y. c #D19F72",
"u. c #D4A47C",
"i. c #D8A87D",
"p. c #D7A57A",
"a. c #9C8581",
"s. c #A18C84",
"d. c #AE9583",
"f. c #A6938C",
"g. c #AB948D",
"h. c #B29783",
"j. c #B29986",
"k. c #BA9B88",
"l. c #B69D8B",
"z. c #AD9D94",
"x. c #B39E90",
"c. c #B99D95",
"v. c #BFA38B",
"b. c #B6A093",
"n. c #BBA69A",
"m. c #B8A9A0",
"M. c #C88496",
"N. c #C0A18D",
"B. c #CEA383",
"V. c #D2A480",
"C. c #DBAC85",
"Z. c #D5AD8C",
"A. c #DAA688",
"S. c #DDB086",
"D. c #DDB38C",
"F. c #C4A598",
"G. c #D2AE94",
"H. c #D8A591",
"J. c #DEB693",
"K. c #DFB896",
"L. c #D3B19B",
"P. c #DAB699",
"I. c #DBBB9E",
"U. c #CCB39E",
"Y. c #E2B68E",
"T. c #E1B692",
"R. c #E4BB95",
"E. c #E3BD9B",
"W. c #E5AF9B",
"Q. c #DAAEA8",
"!. c #D4B5A4",
"~. c #D7B9A5",
"^. c #DBBAA4",
"/. c #D4BBAA",
"(. c #DBBCAB",
"). c #DCB3A8",
"_. c #CFBEB1",
"`. c #DFBBB4",
"'. c #E2BFA9",
"]. c #EEBFAE",
"[. c #E6B8A5",
"{. c #F1B5AF",
"}. c #ECA8B5",
"|. c #F5ABB5",
" X c #F5AFBA",
".X c #F8A5BB",
"XX c #E2BCB5",
"oX c #F5B4BA",
"OX c #F0A2A8",
"+X c #E6C19F",
"@X c #E9C19C",
"#X c #DFC2A8",
"$X c #DAC3B4",
"%X c #E6C2A4",
"&X c #E9C6A6",
"*X c #EDC9A6",
"=X c #E5C4A9",
"-X c #E9C6A9",
";X c #ECC9AA",
":X c #F1C1AF",
">X c #F0CDAD",
",X c #EECFB3",
"<X c #E6C4BB",
"1X c #EBC3BD",
"2X c #E3CAB8",
"3X c #F2C3B1",
"4X c #F0D0B0",
"5X c #E6D2BF",
"6X c #EDC9C1",
"7X c #EAD3C2",
/* pixels */
"                                                                                                                                ",
"                                                                                                                                ",
"                                                                                                                                ",
"                                                                                                                                ",
"                                                                                                                                ",
"                                                                                                                                ",
"                                                                                                                                ",
"                                                                                                                                ",
"                                                                                                                                ",
"                                                                                                                                ",
"                                                                                                                                ",
"                                                                                                                                ",
"                                                                                                                                ",
"                                                                                                                                ",
"                                                                                                                                ",
"                                                                                                                                ",
"                                                                                                                                ",
"                                                                                                                                ",
"                                                    + + + O O O                                 X X O X                         ",
"                                                    h l l l l h                                 h k k 0                         ",
"                    @ O @ O                     # k X.z.z.z.z.X.k +                     # O X 6 X.z.z.X.h .                     ",
"                    t l l h                     + l x.6X6X6X7Xz.l +                     @ % : A n.6X7Xz.j .                     ",
"                . 9 *.b.c.*.q @                 $ k z.6XoXoX6Xz.j O o + O O + X O O + o X : D z._.7X7Xz.j @                     ",
"                9 Z l.=X,Xd.t @                 $ l z.6X.X.X6Xm.S 6 < 1 1 4 r t t k t r 8 C g./.XX1X2Xz.j .                     ",
"            + j O.l.t.e.i.-.8 +                 + t z.1X.X.XXX_.z.+.) Y R ( ,.h.d.h.h.3.-.4.U.`.}. X1Xz.k X                     ",
"            $ l c.-XB.:.%.D 4 +                 + l z.1X}.}.XX$X`.).u.q.q.i.E.;X*X*X;X&XR.R.#XXX}.}.XXf.q .                     ",
"            $ l c.,X=Xh.M <                     @ t z.2X).Q.!.~.=X%XR.T.R.E.&X;X;X;X*X&X@X+X%X#X).Q./.s.0 o                     ",
"            + l z.,X=X<.9 .                     + t z.2X~.!.L.~.%X=X&X-X&X&X&X&X&X%X;X&X;X;X&X%X(./.!.a.6 .                     ",
"            o j l.%XV.~ < +                     @ l z.2X/.U.^.%X=X&X=X-X-X&X&X&X&X&X&X&X=X-X&X&X=X'.!.a.6 .                     ",
"            $ x x.E.0.K , +                     @ t d.#X~.^.%X&X&X&X*X*X&X&X&X=X&X&X;X%X&X&X-X;X-X=X(.g.C 6                     ",
"            + l x.E.9.K , +                     + w =.D.+X%X%X%X&X*X;X*X-X&X&X&X=X&X&X=X&X*X;X;X&X-X=X~.n.o.0 .                 ",
"            + l c.'.0.K < +                     + 1 R y.K.;X;X;X&XI.v.v.I.&X*X&X=X*X&X*X&XI.v.v.I.;X;X;X2Xf.0 .                 ",
"            + l b.%X0.J , +                     @ ; f $.J.*X-X*X*Xv.Z Z v.;X;X*X&X&X-X-X;XN.Z Z v.;X;X-X`.a.0 o                 ",
"            $ 9 o.k.9.T < o                     : p H } Z.;X-X;X;Xd.9 9 3.;X;X=X-X-X-X-X>X3.8 9 d.;X;X-X!.a.9 .                 ",
"            $ & 4 Z 1.=.8 .     o O O + + + O , M Q U { Z.;X*X-X;Xh.8 8 d.;X;X*X;X&X*X*X>Xh.8 8 h.>X;X;X/.a.5 .                 ",
"            $ + . 8 ,.t.M 8     r 0 < > > * # 7 ! ;.} %.Z.%X=X-X;XN.V B v.*X&XE.E.E.E.@X*XN.B C k.&X&X=XQ.f.c 7                 ",
"                @ 8 -.S.4./ 4 9 O.,.I f g i * 7 D >.6.w.i.D.+X*X*X[.M.M.[.%XD.C.S.C.i.Y.[.[.M.M.H.Y.R.P.!.F.g.o.5 .             ",
"                @ 0 / 2.2.! 8 x 3.A.$.] ] J e 3 M ..>.q.0.u.E.-X].{.|.|.].E.D.i.i.i.i.Y.+X].|.OXA.p.y.V.F.c.s.o.5 .             ",
"                    8 8 r r y b } 5.%.[ [ E b y 3 z Q  .%.7.K.].|.|.{.3X;X@XT.Y.Y.i.C.Y.+X;X-XW.q.$.$.5.2.o.x 3                 ",
"                    O + % 1 s J _ [ [ [ { ' L v < 7 x N } t.E.3X|.|.[.&X;X*XE.R.@XR.R.E.%X=X-XP.w.6.6.;.@.n - .                 ",
"                    @ & 1 i N Y ` [ [ [ | { ` I v r 7 z +.H.%X;X3X[.Y.Y.&X>X*X*X*X*X*X&X^.~.~.!.L.U.L.<.x -                     ",
"                    + - u N Y _ ' [ [ [ [ [ { ` I b 4 k D &.d.j.k.3.;.;.3.j.j.j.j.j.j.h.a.a.&.a.s.f.f.o.5 .                     ",
"                    @ - x L _ ' ' [ [ [ { { { { ` Y m t r 9 9 q q 8 r 4 0 t q q 0 t t 0 6 5 5 9 0 h h 0                         ",
"                    + ; d T _ { [ [ [ [ { { { { | ' R f w = > > ; > > > ; ; ; > ; ; = , 3 0 9 2 $ o . o                         ",
"                    + ; d I ` [ [ [ [ [ { { [ { [ [ ' E U J J J K K K K K K K K K K K T +.a.a.D 2 .                             ",
"                    + ; a I ` [ [ [ ' [ { [ [ { [ %.$.7.7.8.8.8.9.0.8.9.0.0.0.0.8.8.0.e.L.(.=Xs.0 o                             ",
"                    @ ; u L _ [ [ [ [ [ [ [ [ [ [ $.u.J.J.J.J.J.T.T.T.R.T.T.T.T.T.T.T.T.[.-X-Xd.t o                             ",
"                    + & w d Y ' [ { %.5.5.:.5.5.7.y.I.;X;X*X;X;X-X-X-X;X-X-X-X-X;X;X-X-X*X&XE.<.8 O                             ",
"                        * 1 N E ] %.V.J.J.J.J.J.J.I.*X-X;X;X;X;X%X;X;X;X;X;X;X;X;X;X;X;X-XR.e.T 1 O                             ",
"                        o * i f W 5.K.4X;X;X+XI.K.K.J.J.J.J.J.K.%X;X-X;X;X;X;X*X;X;X;X;X;XD.5.H , @                             ",
"                            * p H 5.J.,X,X+Xe.:.9.:.7.7.7.7.5.e.I.;X;X&X;X4X>X>X4X>X;X;X;XJ.5.H > +                             ",
"                            O ; g ;.B.G.v.<.~ J U G U G G H H ) r.+X&XI.v.j.j.j.j.N.P.E.K.A.t.~ < +                             ",
"                            @ = s Y #.( x 8 < , ; > , , > > ; a ( u.R.v.A t t q q C 4.u.0.w.G.<.6 X                             ",
"                            + * a L E L ; . @ @ @ @ @ + @ @ o , J 8.Y.3.8 @ . . . 4 ..q.$.6.L.g.k X                             ",
"                                                                                                                                ",
"                                                                                                                                ",
"                                                                                                                                ",
"                                                                                                                                ",
"                                                                                                                                ",
"                                                                                                                                ",
"                                                                                                                                ",
"                                                                                                                                ",
"                                                                                                                                ",
"                                                                                                                                "
};
