/* XPM */
static char *e23c8b97e5e543bfd4819c3b171d60701g8XYH5zeSkvMvSU[] = {
/* columns rows colors chars-per-pixel */
"64 64 159 2 ",
"   c None",
".  c #040305",
"X  c #070508",
"o  c #14141A",
"O  c #381219",
"+  c #3F1D22",
"@  c #1F202A",
"#  c #22242D",
"$  c #382527",
"%  c #2B2B35",
"&  c #232530",
"*  c #2B313D",
"=  c #34353B",
"-  c #3C343A",
";  c #3A393D",
":  c #421E22",
">  c #452329",
",  c #452C2C",
"<  c #4A272A",
"1  c #482B36",
"2  c #443235",
"3  c #4A3232",
"4  c #453A36",
"5  c #4B3D38",
"6  c #393545",
"7  c #3D3D42",
"8  c #313D49",
"9  c #423D42",
"0  c #743840",
"q  c #56444B",
"w  c #4E4B5F",
"e  c #514C5C",
"r  c #66484E",
"t  c #754247",
"y  c #444A62",
"u  c #475263",
"i  c #5A5F72",
"p  c #675868",
"a  c #6C5564",
"s  c #705765",
"d  c #5D6275",
"f  c #5E667B",
"g  c #64676E",
"h  c #69646A",
"j  c #6A6878",
"k  c #706770",
"l  c #79687A",
"z  c #95454D",
"x  c #924047",
"c  c #B34A40",
"v  c #B9525C",
"b  c #B7515D",
"n  c #BB5F63",
"m  c #9C6662",
"M  c #9D6863",
"N  c #A16963",
"B  c #B16B7A",
"V  c #BF7470",
"C  c #C1564A",
"Z  c #C25D65",
"A  c #C4626D",
"S  c #C56762",
"D  c #D17268",
"F  c #C26D77",
"G  c #C07470",
"H  c #CA7F7D",
"J  c #DB7E74",
"K  c #E67E70",
"L  c #F57A7E",
"P  c #9F8978",
"I  c #C2857D",
"U  c #DE8177",
"Y  c #646D83",
"T  c #797588",
"R  c #727C95",
"E  c #737E99",
"W  c #7C7E95",
"Q  c #857B8E",
"!  c #917788",
"~  c #8D7F93",
"^  c #B77080",
"/  c #B07F81",
"(  c #D87982",
")  c #F77D82",
"_  c #77829B",
"`  c #7A849D",
"'  c #7E87A3",
"]  c #8A8D94",
"[  c #84869E",
"{  c #888597",
"}  c #908798",
"|  c #9F8799",
" . c #9D8496",
".. c #8C9198",
"X. c #AE828C",
"o. c #B88789",
"O. c #BD8E8B",
"+. c #A98F9F",
"@. c #B88D90",
"#. c #848DA9",
"$. c #838CA7",
"%. c #998BA1",
"&. c #8A92AE",
"*. c #8590AB",
"=. c #9C92A5",
"-. c #9C94AA",
";. c #969AAA",
":. c #8C96B2",
">. c #9897B0",
",. c #9299B5",
"<. c #969EBA",
"1. c #A78FA5",
"2. c #A996AA",
"3. c #B29BAB",
"4. c #B99DA6",
"5. c #B2A7AC",
"6. c #A9AFB7",
"7. c #A6AAB4",
"8. c #B8A7B0",
"9. c #BBA9B2",
"0. c #A8B0B9",
"q. c #C28687",
"w. c #DB818A",
"e. c #CD908B",
"r. c #C08F94",
"t. c #C69599",
"y. c #DB949D",
"u. c #F78187",
"i. c #F4848B",
"p. c #F38991",
"a. c #E4959A",
"s. c #FE9A95",
"d. c #FC9690",
"f. c #C5A08D",
"g. c #C5AA93",
"h. c #CD9CA2",
"j. c #D8A4A6",
"k. c #CAB2BE",
"l. c #FDAAA9",
"z. c #FFB7A8",
"x. c #E5B0B2",
"c. c #FFD5BB",
"v. c #9FA7C1",
"b. c #A2A9C3",
"n. c #A6ADC8",
"m. c #AEB8C4",
"M. c #B3B7C2",
"N. c #B5B7C6",
"B. c #B8BED5",
"V. c #D4BCC2",
"C. c #BDC4D5",
"Z. c #BBC2D8",
"A. c #DFC7CA",
"S. c #EFC2C8",
"D. c #E0C8CC",
"F. c #F1C4CA",
"G. c #D0D6E7",
"H. c #D1D7E8",
"J. c #DAD8E2",
/* pixels */
"                                                                                                                                ",
"                                                                                                                                ",
"                                                                                                                                ",
"                                                                                                                                ",
"                                                                                                                                ",
"                                                                                                                                ",
"                                                                                                                                ",
"                                                                                                                                ",
"                                                                                                                                ",
"                                                                                                                                ",
"                                                                                                                                ",
"                                                                                                                                ",
"                                                                                                                                ",
"                                                                                                                                ",
"                                                                                                                                ",
"                                                                                                                                ",
"                                                                                                                                ",
"                                                                                                                                ",
"                                                                                                                                ",
"                                                                                                                                ",
"                                                                                                                                ",
"                                                                                                                                ",
"                                                                                                                                ",
"                                                                                                                                ",
"                                                                                                                                ",
"                                                                                                                                ",
"                                                                                                                                ",
"                                                                                                                                ",
"                                                            . X . .             . . X .                                         ",
"                                                            , 2 9 7             7 9 3 ,                                         ",
"                                                        . , m O.5...; . . . . ; ..5.O.N , .                                     ",
"                                                        . , G l.S.9.h 7 7 7 7 h 9.F.l.G , .                                     ",
"                                                        . > n u.i.y.5.0.0.6.0.8.y.p.) n : X                                     ",
"                                                        . + x Z ( a.x.A.J.J.D.j.F b n x : X                                     ",
"                                                            O r 4.x.K J k.k.K v 0 1 > +                                         ",
"                                                            ; g M.V.D S 3.4.S c t - o .                                         ",
"                                                        . = ] M.C.N.1. .;.>.| X.q.m $ .                                         ",
"                                                        ; g 0.H.B.v.:.$.$.' E Q o.N , .                                         ",
"                                                    . ; { M.G.B.b.&.' R R j y 6 2 $                                             ",
"                                                    . q 7.G.N.b.,.$.` R ~ Q y 6 2 ,                                             ",
"                                                    X ; ;.Z.b.,.:.&.#.=.t.r.{ Q X.M , .                                         ",
"                                                    X - [ n.<.&.#.$.$.=.h.h.=.| o.N , .                                         ",
"                                                    X % T <.,.#.` R R [ =.-.$.j q ,                                             ",
"                                                    X % Y :.:.*.` R R R ` ` E i @ .                                             ",
"                                            . . X . . # i ' &.:.#.$.#.` Y Y ' Y & .                                             ",
"                                            4 5 2 , < 1 y f R ~ %.1.2.} d i ~ ! r ,                                             ",
"                                        X 4 P f.I V n z 1 6 u T ^ ( a.@.h p B ( I m , X                                         ",
"                                        . 5 g.c.z.d.) b + o 8 s A L s.e.k a A ) s.H , X                                         ",
"                                                                                                                                ",
"                                                                                                                                ",
"                                                                                                                                ",
"                                                                                                                                ",
"                                                                                                                                ",
"                                                                                                                                ",
"                                                                                                                                ",
"                                                                                                                                ",
"                                                                                                                                ",
"                                                                                                                                ",
"                                                                                                                                ",
"                                                                                                                                ",
"                                                                                                                                ",
"                                                                                                                                ",
"                                                                                                                                ",
"                                                                                                                                "
};
