/* XPM */
static char *_8e01091e31546adb0601b9c8992d4bdOP496QoT4IfiPGnV[] = {
/* columns rows colors chars-per-pixel */
"64 64 203 2 ",
"   c None",
".  c #141A1E",
"X  c #1A2621",
"o  c #1E2D26",
"O  c #1E2E28",
"+  c #1F3028",
"@  c #202F27",
"#  c #202F2B",
"$  c #213525",
"%  c #22332C",
"&  c #263A2E",
"*  c #283D2F",
"=  c #243631",
"-  c #263B32",
";  c #283D35",
":  c #293E3A",
">  c #29442C",
",  c #2C492F",
"<  c #26462E",
"1  c #2F512F",
"2  c #31552F",
"3  c #2A4335",
"4  c #2D4C33",
"5  c #2B433B",
"6  c #2D4B3C",
"7  c #274533",
"8  c #314E36",
"9  c #304F3A",
"0  c #2E543B",
"q  c #2F5B3C",
"w  c #2C5037",
"e  c #325135",
"r  c #345C32",
"t  c #33533B",
"y  c #345A3D",
"u  c #3A593B",
"i  c #2E633B",
"p  c #376135",
"a  c #386435",
"s  c #38653B",
"d  c #3C6A3A",
"f  c #366838",
"g  c #3D7135",
"h  c #41663F",
"j  c #436E3F",
"k  c #437D39",
"l  c #2A3E40",
"z  c #2D4543",
"x  c #2E4A44",
"c  c #2F4A48",
"v  c #314D46",
"b  c #314D49",
"n  c #325345",
"m  c #355B46",
"M  c #395F46",
"N  c #33544B",
"B  c #355B4B",
"V  c #385F4A",
"C  c #365C51",
"Z  c #385F51",
"A  c #366345",
"S  c #3B6443",
"D  c #356A44",
"F  c #3C6B44",
"G  c #36634C",
"H  c #39634C",
"J  c #376B4C",
"K  c #3B6B4C",
"L  c #377145",
"P  c #3F7347",
"I  c #3C7C47",
"U  c #377648",
"Y  c #3B744D",
"T  c #3C7B4D",
"R  c #376050",
"E  c #396351",
"W  c #3C6C54",
"Q  c #3D6E58",
"!  c #3E7355",
"~  c #3E7B54",
"^  c #3F7358",
"/  c #3F7958",
"(  c #416540",
")  c #446D42",
"_  c #436F4B",
"`  c #427346",
"'  c #447D45",
"]  c #42734C",
"[  c #427B4C",
"{  c #4C7E4A",
"}  c #406E50",
"|  c #417554",
" . c #427C54",
".. c #427659",
"X. c #467C59",
"o. c #487F5A",
"O. c #4B7F57",
"+. c #45823D",
"@. c #4B8C3F",
"#. c #4C923F",
"$. c #3E834E",
"%. c #3F8B4D",
"&. c #3F8353",
"*. c #3F8952",
"=. c #468245",
"-. c #488746",
";. c #458944",
":. c #4A8A45",
">. c #45844C",
",. c #4A854B",
"<. c #438B4D",
"1. c #4A8C4C",
"2. c #51814A",
"3. c #578F4F",
"4. c #4D9345",
"5. c #4E9B45",
"6. c #46944E",
"7. c #4C944C",
"8. c #479B4F",
"9. c #4B9C4D",
"0. c #529245",
"q. c #519D46",
"w. c #58964C",
"e. c #519C4B",
"r. c #59984C",
"t. c #428453",
"y. c #4B8554",
"u. c #428C52",
"i. c #4A8B52",
"p. c #478159",
"a. c #4A835A",
"s. c #4C8C5A",
"d. c #508450",
"f. c #548E52",
"g. c #588D50",
"h. c #518C5C",
"j. c #449351",
"k. c #4A9455",
"l. c #469952",
"z. c #4A9C55",
"x. c #4E955A",
"c. c #539454",
"v. c #599252",
"b. c #519B55",
"n. c #5C9A51",
"m. c #53925C",
"M. c #519C5A",
"N. c #5B9B5B",
"B. c #4DA34D",
"V. c #55A446",
"C. c #57AC46",
"Z. c #58AE46",
"A. c #53A44B",
"S. c #54AB4A",
"D. c #5BAD4C",
"F. c #59A14E",
"G. c #5AB446",
"H. c #5DBA44",
"J. c #5BB44D",
"K. c #5BB54B",
"L. c #4EA452",
"P. c #56A150",
"I. c #5CA554",
"U. c #54AC54",
"Y. c #55A55A",
"T. c #56AA5A",
"R. c #5BAB5C",
"E. c #5EA75A",
"W. c #5DB253",
"Q. c #5FBA54",
"!. c #5EB25D",
"~. c #61BB4A",
"^. c #60BF43",
"/. c #63A45A",
"(. c #64AB5C",
"). c #64A657",
"_. c #66B256",
"`. c #64B553",
"'. c #64BC51",
"]. c #69B857",
"[. c #66B15E",
"{. c #6AB45A",
"}. c #66BC5C",
"|. c #6BBD5B",
" X c #5B9D61",
".X c #5A9761",
"XX c #5EAB61",
"oX c #5CA560",
"OX c #61A561",
"+X c #63AB61",
"@X c #64B460",
"#X c #6AB562",
"$X c #64B860",
"%X c #6CBD62",
"&X c #60C043",
"*X c #67C052",
"=X c #6CC756",
"-X c #6DC45A",
";X c #6FC85A",
":X c #72C55E",
">X c #72C95C",
",X c #6DC260",
"<X c #70C061",
/* pixels */
"                                                % % # % # $ # # % # % %                                                         ",
"                                                & & & & & & & & & & & &                                                         ",
"                                                , , 4 4 8 8 e 8 8 4 , ,                                                         ",
"                                              e r a a j j ` ) j j a a r e                                                       ",
"                                          & , r g +.@.0.w.n.n.w.0.@.+.g r , & @ # # % # # % # # % # %                           ",
"                                        % & 4 p k #.A.D._.{.[._.D.V.#.k a 4 * % & & & & * & * * * & & &                         ",
"                                        - 3 e s +.5.C.`.|.-X,X-X'.D.V.+.d e 3 - ; ; ; 4 8 8 8 e 8 1 , ,                         ",
"                                      ; ; 6 t S ' 7.F.W.{.%X,X}.Q.D.B.;.d y 6 5 5 6 t m ( ( j j j d a r e                       ",
"                          % % # # # = 5 x n V K Y y.k.M.Y.T.T.!.U.L.8.<.P A m n m m H ] O.g.r.r.0.@.k g r , &                   ",
"                        & & & & & - 3 9 m H K Y |  .t.*.x.z.L.z.L.j.6.$.~ K G R G E | y.N.(.{.{.D.V.#.k a 4 & &                 ",
"                        ; ; ; 3 8 8 y S F ] | | ! | / / *.*.*.z.j.j.u.~ ! ! W W E } X.h.OX#X%X|._.D.5.+.a e 7 -                 ",
"                      ; 5 6 t u ( ) ` { ,.,.y. .| ! / / &.*.*.*.*.&.&.~ ! ! Q Q Q ....h. X+X+X_.).A.7.' F t 6 5 ;               ",
"                  % - ; 6 n H ] d.v.n.n.F.A.c.1. .| ! / &.*.*.*.&./ / ! ! ! Q Q Q Q ..p.s.m.m.m.x.i.y.[ K A n 6 5 - &           ",
"                & ; 3 6 n G | d.N.(.{.|.`.D.A.7.>. . .~ *.*.*.*.&./ ! ! ! ! ! ! Q ..| ..X.o.p.p. . . .| W H G n 6 ; & %         ",
"                8 e t m V W ..h.oX#X,X-X'.J.S.7.<. . .t.s.x.x.s.t.t./ ! ! ! ! ! Q ! / ! ../ ~  .| ^ W | Q W G n 6 ; - %         ",
"              u ( ) ) _ } | o.h.oX$X}.}.Q.D.S.7.u.u.t.s.z.Y.Y.M.s.t./ / / ~ ~ ~ / ~  .~ / / ! ! Q W Q W Q W G m 6 ; & %         ",
"          * e ( { 3.v.f.O.X.X.a.M.Y.XXT.U.L.B.8.*.j.x.M.XX$X$XXXY.s.a.&.&.t.*.*.*.*.&.*.&.&.&./ ! Q Q Q Q W R m 6 - & %         ",
"        % * t ) 3.).(. Xh.O...t.u.k.z.L.l.l.l.%.*.j.z.Y.$X%X%X$XoXz.*.*.*.*.u.u.t.u.u.u.u.u.&.&./ ! ! W ..Q E B 6 3 & %         ",
"        % * e ) c.(.#X+Xm.p. .~ &.*.u.u.j.u.%.j.*.l.L.Y.$X,X$X$XY.z.j.*.u.*.u.u.u.u.u.u.u.u.&.&./ /  . .X.X.| _ t 3 & %         ",
"        # * 8 ( f.(.@XR.M.s. .~ &.~ &.&.&.&.&.*.*.*.z.Y.XX$X$X!.Y.z.l.u.*.*.&.&.&.*.&.t.&.&.t.&.~ t.t.a.m.h.d._ m 3 & %         ",
"        % & 4 s >.b.Y.Y.z.s.&.&.~ ~ ~ ~ / / ~ &.*.j.x.L.Y.T.T.Y.L.L.*.*.&.~ ~ ~ / / / / ~ ~ &.&.&.t.k.M.oX+XN.d.( 8 & %         ",
"        % & 3 y I <.k.z.l.u.u.&.~ / ! ! ^ / / &.*.u.*.z.z.z.z.z.*.*.*.*.t.~ / ! / / / ! ! ! ! ~ &.u.k.Y.+X@X(.g.( 8 & %         ",
"        % & 3 y D I $.*.*.u.u.t.t.p.o.o. .y.~ t.*.j.*.l.*.j.%.j.*.z.z.*.t.t. . . . .~ ! ! ! ! / ~ u.s.M.(.(./.g.) e * @         ",
"          & 7 w q D L U ~ &.u.s.h.m.m.m.f.i.u.<.l.l.*.*.*.*.*.*.*.*.*.l.<.y.1.i.1.<.y.[ ! ! W ! ~ t.u.x.c.n.c.{ ( e ;           ",
"              7 w 0 y A J T y.h.oXOX+X(.I.P.9.9.6.j.j.u.&.&.~ &.*.*.l.6.9.e.e.e.e.e.7.i. .| Q W ! !  .[ ] ` ` h u               ",
"                3 7 6 q G K  ..X+X#X%X-X].J.S.A.9.j.u.&.~ / / ~ *.z.l.z.B.A.Z.Z.Z.C.A.7.,. ...^ ! ! W K S u u e                 ",
"                7 7 6 0 B W O.m.+X%X:X;X*XJ.S.B.9.j.u.~ ! ! ! / &.*.j.l.B.S.G.G.H.G.D.A.c.y.p.X.| ! K H y t 2 ,                 ",
"              7 4 0 q m H W  .m.[.|.;X=X~.J.S.9.6.u.&./ ! ! ! ! / &.*.k.B.B.C.G.H.H.K.J.I.N.m.a.X...W K s s r r e               ",
"          % 7 4 A D D Y W W  .c.I.].'.~.Q.S.9.7.u. ./ ! ! W Q W ! ! &.u.6.9.A.S.G.H.H.~.{.#XOX.Xa...| ] ' +.k g r , & % & % & % ",
"        & 3 4 y D U T T T !  .i.b.J.J.J.S.z.j.u.t.~ ! ! W ! ! ! ! / / &.u.6.9.S.C.G.Q.*X:X%X#XOXh.O. . .:.4.@.+.a 4 & % % % % & ",
"        8 t u d I <.<.u.~  .t.i.e.A.A.A.9.j.u.&.! ! ! ! ! | | | ! ! ! ~ *.j.8.B.S.S.~.*X;X>X|.(.m.p. .>.7.e.4.+.d e ; - = & & % ",
"      u h ( ' ,.4.8.9.6.u.t.t.>.7.7.7.9.i.u.t./ ! ! Q | y.t.>. .| ! ^ / &.*.6.8.B.S.W.~.=X>X:X(.h.p. . .1.7.7.=.F y 8 ; - & % & ",
"% & 8 h { w.n.I.D.S.S.B.6.u.t.u.<.y.y.y.t. ./ ! Q } |  .1.7.7.1. .| ! / &.u.l.l.8.B.S.W.*X*X].I.i. ... .y.>.t.[ F A n 6 3 - & % ",
"# & 8 ) g.).{.].`.K.S.B.9.j.u.&.~ T ~ | ! ! ! ! ! |  .y.7.A.e.7.y. .! ~ &.*.j.%.l.6.z.B.J.J.D.e.i.p.| ! | ~ | ! ! E m n 5 - & % ",
"# & 8 ) n.{.:X;X'.J.S.S.9.l.*.&.! ! E W E W W W !  .y.7.A.C.C.A.7.y.~  .$.&.*.&.&.*.<.6.B.A.A.e.1. .| ! ! / ! ! ! Q H m 6 - & + ",
"# & e h w._.>X;X*XJ.S.B.8.l.*.&.! G C C C V E W | >.7.e.C.J.G.C.e.7.<.>.T ~ U ~ Y T [ >.1.7.8.7.y.t.~ / / ~ / / | Q E m 6 3 & % ",
"% & , j 4.D.~.*XW.U.B.8.l.l.*.T J V N b b N H _ ,.7.V.C.G.G.G.G.S.A.7.-.[ K G G G G H Y [ >.>.u.u.&.*.&.&.&.~ / / ! J m 6 3 % % ",
"# & , d @.V.J.J.S.L.l.6.l.%.%.~ J N b b b N V _ -.e.C.G.H.G.H.G.G.C.V.:.` H N n N N B H K !  .&.t.u.*.%.u.j.u.&./ ! E n 6 - & % ",
"= - 8 a +.B.S.S.L.l.%.%.<.&.$.Y K H V N b v B F -.q.C.K.H.H.H.^.H.G.V.4.` B n c N m V V E W W / &.*.l.l.l.l.*.>.~ G m n 6 - % + ",
"; 5 w s +.8.B.L.B.L.j.*.&.T T [ Y F F G n n m K -.e.C.G.G.H.H.^.&XH.V.4.` m n n V S ) K H H E ! ~ <.l.l.L.L.8.<.Y A n 6 - % % + ",
": z n A I 6.8.B.l.l.*.&.Y J L Y =.-.=.` S N m K >.6.B.S.G.H.H.^.&XH.C.@.F M n M ` ' ,.` K V V J ~ *.l.B.S.B.5.;.d 0 5 ; = O X   ",
"l z n A I >.6.6.6.u.%.T G G S P -.4.4.=.S m n G T *.9.B.C.G.H.H.^.Z.V.:._ M M F =.4.4.-.F G V G T *.%.B.B.V.5.+.s 4 ; # X       ",
"z z b A L $.%.%.%.$.U J B n A J -.q.0.-.F m m G Y *.%.L.S.S.C.G.Z.V.0.=.S m A F 1.5.e.4.P K G E Y T %.4.B.#.@.k r , + X         ",
"l l x n D U $.I I L D A n v N J >.:.1.,.K m N V U *.l.L.B.S.S.B.q.4.=.` V n M K <.5.5.7.>.Y J J J U I $.;.@.k g 2 * X .         ",
"=         i i i y q 0 0 v v N V ] [ [ ] H N N H U *.j.L.8.B.8.6.=.` F M n n N K >.6.6.8.<.T U J J G A D d s a 2 , %             ",
"              < , 3 3 5 5 v b B W _ ! W B N n G T $.%.j.l.6.1.>.Y S N N b b m H T <.6.l.<.*.~ Y J B n n 6 4 , > +               ",
"              o % % - 5 6 z N B R E E R N N m G Y ~ *.%.%.l.*.T K B N N b N N H Y T %.%.*.$.T Y J N v 6 5 - & % o               ",
"                @ % - ; v b N C Z Z C C C C B R J Y ~ *.*.*.%.~ K R N N N N Z G J Y Y ~ T ~ U W H N N z ; & % o                 ",
"                + % - 5 n m C C C N C N Z Z R E H G J ~ &.*.*.&.! E Z C Z E Z E G G G G J G G G E G B c 5 - % o                 ",
"                o % 3 5 n B R R N N N N C E R R B B G J T &.*.&.! Q W E E E E Z N N N N N N m B R R B n 5 ; % o                 ",
"                o % - 5 n N V B n x c N C C R C N N N G Y T T ~ ~ J W E E W E C N N c c x x c N m G B n 6 - % o                 ",
"                X + & 3 0 n n n x z 6 c N C C N b c n N G J Y ! W E E E Z Z Z N N b z z l z 5 x n n n 6 7 & + X                 ",
"                    + * 3 6 6 3 5 ; 5 5 v b N N c c b N N G G V N B C N C N N N b c z z : : : 5 5 6 6 7 & +                     ",
"                      % = - 3 - - - ; 5 z c b b c c c c c n N N b b b b b b b b c z z l ; ; = - - - - & +                       ",
"                        + % + % & % = ; : z z z x z z z z z z z z z x x z z z z z z z : ; - % % % % % +                         ",
"                        X o o + o # % = ; : : l z 5 l : 5 5 5 l 5 : z 5 : : z : z : : ; % % % % + o o X                         ",
"                                  X o % - ; ; ; ; : ; ; : ; ; ; ; ; ; ; ; : ; : ; ; ; - % O X                                   ",
"                                      o # & & = & & & = = & = = = = = = & = = & - - = % o                                       ",
"                                        + % % % = % % % % % & % % % & % % % % % % % % $                                         ",
"                                        X o @ @ @ @ @ @ @ @ @ @ # + o + # @ @ @ # o o X                                         ",
"                                              X X                             X X                                               ",
"                                                                                                                                ",
"                                                                                                                                ",
"                                                                                                                                "
};
